<svg width="48" height="48" viewBox="0 0 48 48" fill="none" xmlns="http://www.w3.org/2000/svg">
<circle cx="24" cy="24" r="22" stroke="white" stroke-width="4"/>
<path d="M34.6606 25.8606C35.2464 25.2749 35.2464 24.3251 34.6606 23.7393L25.1147 14.1934C24.5289 13.6076 23.5792 13.6076 22.9934 14.1934C22.4076 14.7792 22.4076 15.7289 22.9934 16.3147L31.4787 24.8L22.9934 33.2853C22.4076 33.8711 22.4076 34.8208 22.9934 35.4066C23.5792 35.9924 24.5289 35.9924 25.1147 35.4066L34.6606 25.8606ZM13.6 23.3C12.7715 23.3 12.1 23.9716 12.1 24.8C12.1 25.6284 12.7715 26.3 13.6 26.3V23.3ZM33.6 23.3H13.6V26.3H33.6V23.3Z" fill="white"/>
</svg>
