<svg width="69" height="75" viewBox="0 0 69 75" fill="none" xmlns="http://www.w3.org/2000/svg">
<path d="M43.7064 23.8754H15.1169" stroke="#FF006E" stroke-width="2" stroke-linecap="round" stroke-linejoin="round"/>
<path d="M29.4116 17.8563H15.1169" stroke="#001F73" stroke-width="2" stroke-linecap="round" stroke-linejoin="round"/>
<path d="M43.7064 29.2083H15.1169" stroke="#001F73" stroke-width="2" stroke-linecap="round" stroke-linejoin="round"/>
<path d="M33.0048 34.6582H15.1166" stroke="#FF006E" stroke-width="2" stroke-linecap="round" stroke-linejoin="round"/>
<path d="M17.7741 56.9543H13.3203" stroke="#FF006E" stroke-width="2" stroke-linecap="round" stroke-linejoin="round"/>
<path d="M18.8826 40.3634H15.1166" stroke="#001F73" stroke-width="2" stroke-linecap="round" stroke-linejoin="round"/>
<path d="M50.823 34.6166V19.8408C50.8243 19.3727 50.7316 18.9089 50.5503 18.4764C50.3689 18.0439 50.1026 17.6512 49.7666 17.321L41.3888 9.04375C41.0546 8.71182 40.6572 8.44866 40.2195 8.2695C39.7817 8.09035 39.3124 7.99875 38.8386 8.00001H12.48C11.2922 8.00134 10.1535 8.46809 9.31363 9.29787C8.47376 10.1277 8.00134 11.2527 8 12.4262V58.2639C8.00136 59.4374 8.4738 60.5624 9.31367 61.3922C10.1535 62.2219 11.2922 62.6887 12.48 62.69H21.6294M39.0904 8.00001V15.1656C39.0904 15.7468 39.2063 16.3224 39.4314 16.8594C39.6566 17.3964 39.9866 17.8843 40.4026 18.2954C40.8186 18.7064 41.3124 19.0324 41.856 19.2548C42.3995 19.4773 42.9821 19.5918 43.5704 19.5918H50.823" stroke="#001F73" stroke-width="2" stroke-miterlimit="10" stroke-linecap="round" stroke-linejoin="round"/>
<path d="M19.2359 51.7398C19.8788 51.7398 20.4 51.2249 20.4 50.5897C20.4 49.9545 19.8788 49.4396 19.2359 49.4396C18.593 49.4396 18.0718 49.9545 18.0718 50.5897C18.0718 51.2249 18.593 51.7398 19.2359 51.7398Z" stroke="#FF006E" stroke-width="1.5" stroke-linecap="round" stroke-linejoin="round"/>
<path d="M56.573 51.7398C57.2159 51.7398 57.7371 51.2249 57.7371 50.5897C57.7371 49.9545 57.2159 49.4396 56.573 49.4396C55.9301 49.4396 55.4089 49.9545 55.4089 50.5897C55.4089 51.2249 55.9301 51.7398 56.573 51.7398Z" stroke="#FF006E" stroke-width="1.5" stroke-linecap="round" stroke-linejoin="round"/>
<path d="M46.668 43.6776C46.5725 43.3864 46.4115 43.1204 46.1971 42.8994C45.9828 42.6784 45.7206 42.5082 45.4302 42.4015" stroke="#001F73" stroke-width="2" stroke-linecap="round" stroke-linejoin="round"/>
<path d="M30.7677 42.5646C30.2975 42.7279 29.8886 43.0284 29.5951 43.4263" stroke="#001F73" stroke-width="2" stroke-linecap="round" stroke-linejoin="round"/>
<path d="M23.6335 59.9549L26.3206 55.446" stroke="#FF006E" stroke-width="2" stroke-linecap="round" stroke-linejoin="round"/>
<path d="M26.9911 62.3379L30.7676 56.9543" stroke="#001F73" stroke-width="2" stroke-linecap="round" stroke-linejoin="round"/>
<path d="M31.0538 64.5202L34.0865 60.6921" stroke="#FF006E" stroke-width="2" stroke-linecap="round" stroke-linejoin="round"/>
<path d="M50.6926 59.6173L44.0951 53.099" stroke="#FF006E" stroke-width="2" stroke-linecap="round" stroke-linejoin="round"/>
<path d="M47.0434 62.1339L40.3517 55.5226" stroke="#001F73" stroke-width="2" stroke-linecap="round" stroke-linejoin="round"/>
<path d="M42.6004 64.4197L38.1033 59.9767" stroke="#FF006E" stroke-width="2" stroke-linecap="round" stroke-linejoin="round"/>
<path d="M54.0221 55.0343L48.942 50.0153" stroke="#001F73" stroke-width="2" stroke-linecap="round" stroke-linejoin="round"/>
<path d="M47.3242 42.4219L55.1886 54.3609" stroke="white" stroke-width="2" stroke-linecap="round" stroke-linejoin="round"/>
<path d="M37.8901 42.3335C38.1658 42.2402 38.0732 42.2785 41.12 41.5121C42.9144 41.0637 44.0009 41.9573 45.43 42.4016C46.038 42.6348 46.7111 42.642 47.3241 42.4218C47.0855 41.6895 47.1056 40.8988 47.3811 40.1793C47.6566 39.4597 48.1711 38.8538 48.8405 38.4607L50.6505 37.4012C50.8681 37.2737 51.109 37.1898 51.3594 37.1544C51.6098 37.1189 51.8649 37.1326 52.11 37.1946C52.3551 37.2566 52.5854 37.3657 52.7877 37.5157C52.9901 37.6657 53.1605 37.8537 53.2893 38.0688L60.7306 50.4784C60.8597 50.6933 60.9446 50.9313 60.9805 51.1788C61.0164 51.4262 61.0026 51.6782 60.9398 51.9203C60.877 52.1624 60.7666 52.39 60.6147 52.5899C60.4629 52.7898 60.2726 52.9582 60.0548 53.0854L58.2451 54.1448C57.7876 54.4128 57.2732 54.5718 56.7426 54.6094C56.2121 54.6469 55.6799 54.5618 55.1884 54.3609L54.0219 55.0343C54.4429 55.5296 54.685 56.1494 54.7098 56.7957C54.7347 57.4421 54.5409 58.0782 54.1592 58.6037C53.7774 59.1292 53.2294 59.5141 52.6016 59.6976C51.9738 59.8812 51.3021 59.8529 50.6924 59.6173C50.6481 60.0319 50.5142 60.4323 50.2997 60.7914C50.0852 61.1504 49.7952 61.4597 49.4491 61.6983C49.1031 61.9369 48.7093 62.0993 48.2942 62.1745C47.8792 62.2497 47.4526 62.2358 47.0434 62.1339C47.0065 62.6279 46.8424 63.1044 46.5669 63.5183C46.2914 63.9322 45.9135 64.2697 45.4691 64.4989C45.0246 64.7281 44.5282 64.8414 44.0271 64.828C43.5259 64.8147 43.0364 64.6752 42.6051 64.4226L42.6003 64.4198C42.5411 64.9002 42.3617 65.3586 42.0783 65.7533C41.7948 66.1481 41.4163 66.4669 40.9769 66.6809C40.5375 66.8949 40.0511 66.9974 39.5616 66.9791C39.072 66.9608 38.5948 66.8223 38.173 66.5761L36.0567 65.3375C35.7284 65.726 35.3031 66.0231 34.8228 66.1994C34.3426 66.3756 33.8241 66.4249 33.3186 66.3424C32.8132 66.2598 32.3383 66.0482 31.9411 65.7287C31.5438 65.4091 31.2379 64.9925 31.0537 64.5202C30.6446 64.6938 30.2011 64.7734 29.7564 64.7531C29.3117 64.7328 28.8775 64.6131 28.4864 64.403C28.0954 64.1929 27.7576 63.8979 27.4986 63.5402C27.2396 63.1825 27.0662 62.7714 26.9912 62.3378C26.2268 62.4573 25.4454 62.2741 24.8168 61.8279C24.1882 61.3818 23.763 60.7088 23.6334 59.9549C23.0599 60.0446 22.4723 59.9646 21.9446 59.725C21.417 59.4854 20.9729 59.0969 20.6683 58.6084C20.3637 58.12 20.2122 57.5534 20.2329 56.98C20.2536 56.4066 20.4456 55.8521 20.7846 55.3863L21.581 54.2904L21.2038 54.0705M37.8901 42.3335C36.1061 41.33 35.0337 41.0313 33.1399 41.7552L31.4517 42.3999C31.0685 42.5475 30.6562 42.6066 30.2463 42.5728C29.8365 42.5389 29.4398 42.4131 29.0867 42.2048L28.626 41.9365M37.8901 42.3335C37.2306 42.5126 36.2275 43.4264 36.2275 43.4264C35.5851 44.1386 35.2304 45.0595 35.2312 46.0135V49.8606C35.2316 50.3519 35.4291 50.8229 35.7804 51.1705C36.1318 51.5181 36.6082 51.7139 37.1054 51.7151H37.108C37.9183 51.7145 38.7083 51.4638 39.3674 50.9982C40.0266 50.5325 40.5221 49.8751 40.7848 49.1177C40.7848 49.1177 40.9229 46.97 41.4096 46.156M28.626 41.9365C28.74 41.2616 28.6446 40.5684 28.3523 39.9481C28.0601 39.3277 27.5846 38.8093 26.9886 38.461L25.1785 37.4015C24.7389 37.1449 24.2142 37.071 23.7195 37.1961C23.2249 37.3212 22.8006 37.6351 22.5398 38.0688L15.0983 50.4785C14.9693 50.6935 14.8844 50.9314 14.8485 51.1788C14.8126 51.4262 14.8264 51.6782 14.8892 51.9203C14.9519 52.1624 15.0623 52.3899 15.2141 52.5899C15.3659 52.7898 15.5561 52.9582 15.7738 53.0855L17.5837 54.1449C18.1114 54.4547 18.714 54.6182 19.3279 54.6179C19.9935 54.6177 20.6449 54.4276 21.2038 54.0705M28.626 41.9365L21.2038 54.0705M37.0896 63.9254C37.3547 63.5212 37.514 63.0582 37.5532 62.5781C37.5924 62.098 37.5102 61.6158 37.3141 61.1748C37.1181 60.7338 36.8141 60.3478 36.4297 60.0515C36.0453 59.7553 35.5924 59.558 35.1118 59.4775C35.2924 59.0017 35.3437 58.4873 35.2604 57.9858C35.1771 57.4843 34.9622 57.0132 34.6371 56.6193C34.312 56.2255 33.8881 55.9227 33.4076 55.7412C32.9271 55.5598 32.4069 55.5059 31.8988 55.585C31.8075 55.0579 31.571 54.5659 31.2151 54.1629C30.8592 53.76 30.3978 53.4618 29.8815 53.3011C29.3653 53.1404 28.8142 53.1234 28.2888 53.252C27.7634 53.3805 27.2841 53.6497 26.9034 54.0299C26.7082 53.6915 26.446 53.3953 26.1326 53.1589C25.8191 52.9225 25.4608 52.7508 25.0788 52.654C24.6969 52.5572 24.2991 52.5372 23.9092 52.5952C23.5193 52.6533 23.1452 52.7882 22.8091 52.992" stroke="#001F73" stroke-width="2" stroke-linecap="round" stroke-linejoin="round"/>
<path d="M47.1947 42.3456L55.0355 54.2935" stroke="#142470" stroke-width="2"/>
</svg>
