<svg width="518" height="63" viewBox="0 0 518 63" fill="none" xmlns="http://www.w3.org/2000/svg">
<path d="M38.6005 38.6068C34.5661 38.6023 30.6375 37.3328 27.3822 34.9814L21.5346 40.8204C20.9589 41.4029 20.1722 41.7358 19.3476 41.746C18.5231 41.7562 17.7282 41.4428 17.1378 40.8748L17.0827 40.8204C16.4882 40.2295 16.1547 39.4307 16.1547 38.5981C16.1547 37.7656 16.4882 36.9668 17.0827 36.3758L22.9656 30.5194C20.6376 27.2294 19.4029 23.3071 19.4323 19.2947C14.3449 19.4455 9.51716 21.5454 5.97269 25.149C2.42822 28.7527 0.445801 33.5767 0.445801 38.5981C0.445801 43.6196 2.42822 48.4436 5.97269 52.0472C9.51716 55.6509 14.3449 57.7507 19.4323 57.9016C24.5617 57.8327 29.4555 55.7655 33.0463 52.151C36.6371 48.5365 38.6336 43.6679 38.6005 38.6068Z" fill="white"/>
<path d="M65.7901 7.32043H75.012V56.2109H65.7901V7.32043Z" fill="white"/>
<path d="M84.4813 7.32043H93.7209V16.0353H84.4813V7.32043ZM84.4813 20.7936H93.7209V56.2109H84.4813V20.7936Z" fill="white"/>
<path d="M134.902 56.2109H125.68V38.1363C125.815 35.6459 125.613 33.1489 125.079 30.7112C124.744 29.66 124.075 28.7432 123.171 28.0967C122.231 27.4479 121.102 27.1176 119.956 27.1555C118.417 27.1427 116.913 27.6127 115.663 28.4976C114.419 29.3372 113.498 30.565 113.048 31.9836C112.454 34.6548 112.216 37.3912 112.341 40.1233V56.1761H103.102V20.7937H111.688V26.0226C112.961 24.1705 114.675 22.6552 116.68 21.6098C118.686 20.5643 120.921 20.0207 123.189 20.0268C125.109 20.002 127.012 20.3824 128.771 21.1423C130.273 21.7518 131.589 22.737 132.587 24.0008C133.441 25.1756 134.042 26.5101 134.354 27.9224C134.739 30.0032 134.904 32.1176 134.849 34.232V56.2109H134.902Z" fill="white"/>
<path d="M139.831 56.211L152.427 37.962L140.36 20.7937H151.632L157.815 30.5369L164.316 20.7937H175.146L163.327 37.5611L176.241 56.211H164.899L157.815 45.2302L150.642 56.211H139.831Z" fill="white"/>
<path d="M213.765 56.2109H205.108V50.982C203.836 52.8758 202.106 54.4273 200.073 55.4963C198.269 56.4532 196.256 56.9618 194.208 56.9778C192.226 56.9812 190.269 56.5405 188.485 55.6891C186.701 54.8376 185.136 53.5977 183.908 52.0626C181.046 48.7858 179.615 44.2134 179.615 38.3454C179.615 32.4774 180.988 27.9224 183.732 24.6805C185.029 23.1648 186.656 21.9565 188.49 21.1449C190.325 20.3333 192.322 19.9392 194.332 19.9919C196.288 20.0028 198.216 20.4526 199.969 21.3072C201.723 22.1618 203.257 23.3987 204.455 24.9245V7.32043H213.765V56.2109ZM189.032 37.7353C188.831 40.5561 189.36 43.3808 190.569 45.9448C191.177 47.0567 192.08 47.9847 193.182 48.6294C194.283 49.2741 195.542 49.6113 196.823 49.605C197.88 49.5984 198.921 49.3455 199.86 48.8669C200.799 48.3884 201.611 47.6977 202.229 46.8511C203.901 44.4393 204.692 41.5382 204.472 38.6243C204.472 34.5573 203.748 31.6524 202.299 29.9094C201.637 29.092 200.797 28.432 199.842 27.9785C198.886 27.525 197.839 27.2895 196.779 27.2895C195.718 27.2895 194.671 27.525 193.715 27.9785C192.76 28.432 191.92 29.092 191.258 29.9094C189.631 32.1903 188.845 34.9524 189.032 37.7353Z" fill="white"/>
<path d="M229.665 31.6002L221.291 30.0663C221.959 27.05 223.671 24.3571 226.131 22.4495C229.209 20.6088 232.787 19.7505 236.378 19.992C239.519 19.8137 242.662 20.3195 245.582 21.4735C247.367 22.2558 248.857 23.5731 249.84 25.2383C250.849 27.9207 251.265 30.7853 251.059 33.6394V44.5679C251.007 46.871 251.154 49.1744 251.501 51.4526C251.855 53.0997 252.413 54.6977 253.161 56.211H243.975C243.727 55.5835 243.445 54.6597 243.091 53.4396C242.932 52.8819 242.826 52.5159 242.756 52.3416C241.306 53.8033 239.592 54.9855 237.703 55.8275C235.89 56.597 233.935 56.9887 231.961 56.9779C230.416 57.066 228.869 56.8493 227.41 56.3405C225.951 55.8318 224.61 55.0411 223.464 54.0148C222.445 53.0484 221.642 51.8824 221.106 50.5917C220.571 49.301 220.315 47.9141 220.354 46.52C220.324 44.6428 220.813 42.793 221.768 41.1691C222.698 39.6086 224.075 38.3535 225.725 37.5611C228.069 36.5242 230.539 35.7919 233.074 35.3824C236.126 34.9108 239.126 34.152 242.031 33.1166V32.1753C242.104 31.4784 242.025 30.7742 241.8 30.1099C241.574 29.4455 241.208 28.8364 240.724 28.3234C239.25 27.3936 237.499 26.9878 235.76 27.173C234.407 27.094 233.065 27.442 231.926 28.1665C230.833 29.0731 230.049 30.2904 229.682 31.6525L229.665 31.6002ZM242.031 39.1995C240.185 39.7716 238.31 40.2486 236.413 40.6288C234.664 40.9125 232.971 41.4654 231.396 42.2672C230.849 42.6297 230.401 43.1203 230.093 43.6951C229.785 44.2699 229.625 44.9111 229.629 45.5614C229.62 46.1943 229.742 46.8223 229.988 47.4069C230.235 47.9914 230.599 48.52 231.06 48.9602C231.543 49.4375 232.12 49.8121 232.755 50.0609C233.39 50.3097 234.07 50.4275 234.753 50.4069C236.489 50.3649 238.162 49.7514 239.505 48.6639C240.572 47.9027 241.35 46.8103 241.713 45.5614C242.01 44.0579 242.129 42.5254 242.067 40.9948V39.1995H242.031Z" fill="white"/>
<path d="M276.198 20.7937V28.2537H269.891V42.5286C269.841 44.2155 269.9 45.9038 270.068 47.5832C270.192 48.0635 270.487 48.484 270.898 48.7685C271.35 49.0889 271.897 49.2542 272.453 49.2391C273.738 49.1458 274.999 48.8394 276.181 48.3327L276.958 55.6009C274.659 56.5685 272.178 57.0437 269.679 56.9953C268.13 57.0189 266.592 56.7343 265.157 56.1587C264 55.729 262.985 54.9933 262.224 54.0323C261.525 52.9213 261.085 51.6712 260.934 50.372C260.677 48.1798 260.577 45.9723 260.634 43.7661V28.2537H256.394V20.7937H260.634V13.8218L269.891 8.34888V20.8634L276.198 20.7937Z" fill="white"/>
<path d="M289.519 31.6001L281.127 30.0663C281.807 27.0503 283.524 24.3592 285.986 22.4495C289.069 20.6084 292.654 19.7502 296.25 19.9919C299.385 19.8152 302.521 20.321 305.436 21.4734C307.221 22.2557 308.711 23.573 309.694 25.2382C310.72 27.9167 311.142 30.7836 310.931 33.6394L310.825 44.5678C310.772 46.871 310.92 49.1743 311.266 51.4526C311.629 53.0974 312.186 54.6945 312.927 56.2109H303.864C303.634 55.5834 303.334 54.6597 302.981 53.4396C302.839 52.8818 302.716 52.5158 302.663 52.3415C301.203 53.8 299.485 54.9816 297.593 55.8274C295.78 56.5989 293.825 56.9907 291.851 56.9778C290.306 57.0649 288.759 56.8478 287.3 56.3391C285.841 55.8303 284.5 55.0402 283.353 54.0148C282.334 53.0483 281.531 51.8823 280.996 50.5916C280.46 49.3009 280.204 47.914 280.244 46.52C280.214 44.6428 280.702 42.7929 281.657 41.169C282.593 39.6124 283.968 38.3586 285.615 37.5611C287.959 36.5267 290.43 35.7944 292.964 35.3824C295.997 34.9033 298.978 34.1447 301.868 33.1165V32.1753C301.938 31.4771 301.857 30.7721 301.628 30.1077C301.4 29.4433 301.03 28.8349 300.543 28.3233C299.069 27.3936 297.318 26.9878 295.579 27.173C294.226 27.0964 292.884 27.4442 291.745 28.1664C290.652 29.0702 289.873 30.2893 289.519 31.6524V31.6001ZM301.886 39.1995C300.039 39.7694 298.164 40.2464 296.268 40.6287C294.513 40.9133 292.814 41.4661 291.233 42.2671C290.685 42.6297 290.238 43.1202 289.929 43.695C289.621 44.2699 289.462 44.911 289.466 45.5613C289.456 46.1959 289.579 46.8257 289.829 47.4108C290.078 47.9958 290.448 48.5234 290.915 48.9601C291.393 49.4378 291.967 49.8128 292.599 50.0617C293.231 50.3106 293.909 50.4281 294.589 50.4068C296.331 50.362 298.008 49.7491 299.359 48.6638C300.416 47.8961 301.186 46.8054 301.55 45.5613C301.865 44.0602 301.989 42.5262 301.921 40.9947V39.1995H301.886Z" fill="white"/>
<path d="M350.451 31.269L341.352 32.9248C341.15 31.3302 340.387 29.8561 339.197 28.7591C338.015 27.7917 336.509 27.2944 334.975 27.3647C333.929 27.3243 332.888 27.5218 331.932 27.9419C330.977 28.362 330.132 28.9935 329.463 29.7875C328.103 31.391 327.414 34.0926 327.414 37.8575C327.414 42.058 328.103 45.0385 329.498 46.7641C330.154 47.6073 331.004 48.2842 331.978 48.7389C332.952 49.1935 334.022 49.4128 335.098 49.3785C336.682 49.4344 338.226 48.8849 339.409 47.8447C340.745 46.3965 341.575 44.5637 341.776 42.6158L350.839 44.1845C350.192 47.8915 348.278 51.2683 345.416 53.7534C342.331 56.0406 338.528 57.1823 334.675 56.9779C332.402 57.0815 330.133 56.6973 328.026 55.8517C325.918 55.0061 324.021 53.7193 322.467 52.0801C319.314 48.2756 317.719 43.444 317.997 38.5372C317.997 32.768 319.517 28.0794 322.555 24.8723C324.141 23.2305 326.066 21.9449 328.2 21.1028C330.334 20.2606 332.626 19.8818 334.922 19.992C338.52 19.8004 342.083 20.7802 345.062 22.7807C347.775 24.9347 349.678 27.9231 350.468 31.269H350.451Z" fill="white"/>
<path d="M377.657 44.9338L386.844 46.5025C385.873 49.6347 383.91 52.3775 381.244 54.3285C378.415 56.1885 375.065 57.1216 371.668 56.9952C365.603 56.9952 361.115 54.985 358.206 50.9645C355.795 47.3524 354.59 43.0858 354.761 38.7637C354.761 32.8899 356.263 28.3059 359.284 24.9768C360.706 23.3656 362.471 22.0836 364.453 21.222C366.435 20.3604 368.585 19.9404 370.75 19.9919C373.078 19.8786 375.402 20.2907 377.545 21.1968C379.688 22.1028 381.593 23.4791 383.116 25.2208C386.119 28.7067 387.55 34.0402 387.409 41.2213H364.213C364.136 43.5771 364.927 45.8807 366.439 47.7052C367.102 48.4446 367.918 49.0345 368.833 49.4345C369.747 49.8346 370.739 50.0354 371.739 50.0233C373.072 50.0644 374.377 49.6314 375.414 48.8032C376.541 47.7671 377.323 46.4179 377.657 44.9338ZM378.17 35.4695C378.282 33.2255 377.545 31.0204 376.103 29.2819C375.509 28.6054 374.773 28.0646 373.947 27.6974C373.12 27.3301 372.222 27.1452 371.315 27.1555C370.364 27.1352 369.42 27.3268 368.555 27.7161C367.689 28.1054 366.924 28.6823 366.315 29.4039C364.927 31.1177 364.234 33.2797 364.372 35.4695H378.17Z" fill="white"/>
<path d="M426.593 56.2109H417.371V38.1363C417.507 35.6459 417.305 33.1489 416.771 30.7112C416.436 29.66 415.767 28.7432 414.863 28.0967C413.919 27.4546 412.793 27.125 411.648 27.1555C410.109 27.1427 408.605 27.6127 407.355 28.4976C406.111 29.3372 405.19 30.565 404.74 31.9836C404.146 34.6548 403.908 37.3912 404.033 40.1233V56.1761H394.794V20.7937H403.38V26.0226C404.653 24.1705 406.367 22.6552 408.372 21.6098C410.378 20.5643 412.612 20.0207 414.881 20.0268C416.801 20.002 418.704 20.3824 420.463 21.1423C421.965 21.7518 423.28 22.737 424.279 24.0008C425.147 25.1673 425.75 26.505 426.046 27.9224C426.447 30.0012 426.619 32.1167 426.558 34.232V56.2109H426.593Z" fill="white"/>
<path d="M451.963 20.7937V28.2536H445.656V42.5286C445.595 44.2155 445.654 45.9045 445.832 47.5832C445.951 48.0662 446.247 48.4886 446.663 48.7684C447.114 49.0913 447.66 49.2568 448.217 49.239C449.497 49.1432 450.75 48.8368 451.927 48.3327L452.722 55.6009C450.417 56.5669 447.93 57.042 445.426 56.9953C443.883 57.019 442.35 56.7344 440.921 56.1587C439.764 55.729 438.749 54.9933 437.988 54.0322C437.291 52.9191 436.845 51.6706 436.681 50.372C436.423 48.1797 436.323 45.9723 436.381 43.7661V28.2536H432.158V20.7937H436.363V13.8218L445.638 8.34888V20.8634L451.963 20.7937Z" fill="white"/>
<path d="M478.568 44.9339L487.773 46.5026C486.796 49.6321 484.834 52.3733 482.172 54.3286C479.343 56.1853 475.993 57.1181 472.597 56.9953C466.537 56.9953 461.997 54.9909 459.117 50.9646C456.706 47.3525 455.501 43.0859 455.672 38.7638C455.672 32.89 457.192 28.306 460.213 24.9769C461.635 23.3615 463.403 22.0768 465.388 21.215C467.374 20.3531 469.528 19.9355 471.696 19.992C474.01 19.8895 476.318 20.307 478.445 21.2128C480.572 22.1186 482.462 23.4891 483.974 25.2209C486.978 28.7068 488.414 34.0403 488.285 41.2214H465.142C465.056 43.5784 465.848 45.8847 467.368 47.7053C468.03 48.4447 468.847 49.0346 469.761 49.4346C470.676 49.8347 471.667 50.0355 472.668 50.0234C473.987 50.061 475.277 49.6348 476.307 48.8208C477.435 47.7879 478.213 46.4366 478.533 44.9514L478.568 44.9339ZM479.098 35.4696C479.184 33.2234 478.436 31.0235 476.996 29.282C476.375 28.6038 475.616 28.0637 474.767 27.6979C473.918 27.332 473 27.1488 472.074 27.1603C471.148 27.1719 470.235 27.378 469.396 27.7648C468.557 28.1517 467.812 28.7105 467.209 29.404C465.809 31.1121 465.115 33.2784 465.265 35.4696H479.098Z" fill="white"/>
<path d="M504.626 56.2109H495.405V20.7937H503.973V25.8309C504.948 24.0095 506.296 22.4072 507.93 21.1248C509.116 20.361 510.507 19.9663 511.923 19.9919C514.073 20.0053 516.177 20.6088 518 21.7349L515.138 29.9094C513.877 28.9941 512.373 28.4611 510.81 28.3756C509.619 28.3396 508.454 28.7226 507.524 29.4562C506.426 30.5179 505.686 31.8871 505.404 33.3779C504.728 37.2971 504.467 41.2751 504.626 45.2476V56.2109Z" fill="white"/>
<path d="M38.6013 0C33.4504 0.0368567 28.525 2.08986 24.9075 5.70785C21.2901 9.32583 19.2766 14.2128 19.3095 19.2947C19.2801 23.3071 20.5147 27.2294 22.8428 30.5195L30.457 22.9027L36.2163 17.1509C36.8093 16.5665 37.6131 16.2383 38.4512 16.2383C39.2892 16.2383 40.093 16.5665 40.686 17.1509C41.2815 17.7448 41.6155 18.5465 41.6155 19.3819C41.6155 20.2173 41.2815 21.019 40.686 21.6129L34.9973 27.3647L27.3831 34.9815C30.6383 37.3328 34.5669 38.6024 38.6013 38.6069C43.7552 38.57 48.6831 36.5148 52.301 32.8933C55.9189 29.2717 57.9305 24.3806 57.8932 19.2958V19.2947C57.9261 14.2128 55.9126 9.32583 52.2951 5.70785C48.6777 2.08986 43.7523 0.0368567 38.6013 0V0Z" fill="white"/>
</svg>
