<svg width="45" height="45" viewBox="0 0 45 45" fill="none" xmlns="http://www.w3.org/2000/svg">
<path d="M35.8399 14.0725L22.2715 22.0603" stroke="#001F73" stroke-width="1.5" stroke-miterlimit="10" stroke-linecap="round" stroke-linejoin="round"/>
<path d="M12.0293 15.6654L22.2712 9.47748L32.9389 15.6654V28.1549L22.2712 34.3325L12.0293 28.1549V15.9447" stroke="#001F73" stroke-width="1.5" stroke-miterlimit="10" stroke-linecap="round" stroke-linejoin="round"/>
<path d="M8.92383 29.914L12.0296 28.1549" stroke="#001F73" stroke-width="1.5" stroke-miterlimit="10" stroke-linecap="round" stroke-linejoin="round"/>
<path d="M36.1175 29.8312L32.939 28.1549" stroke="#001F73" stroke-width="1.5" stroke-miterlimit="10" stroke-linecap="round" stroke-linejoin="round"/>
<path d="M19.2485 6.0629L22.4894 3V15.9449" stroke="#001F73" stroke-width="1.5" stroke-miterlimit="10" stroke-linecap="round" stroke-linejoin="round"/>
<path d="M25.6678 5.95942L22.4893 3" stroke="#001F73" stroke-width="1.5" stroke-miterlimit="10" stroke-linecap="round" stroke-linejoin="round"/>
<path d="M25.6679 37.9853L22.2713 41.0068V22.0603L9.01709 13.7822" stroke="#001F73" stroke-width="1.5" stroke-miterlimit="10" stroke-linecap="round" stroke-linejoin="round"/>
<path d="M19.2485 37.9853L22.2712 41.0068" stroke="#001F73" stroke-width="1.5" stroke-miterlimit="10" stroke-linecap="round" stroke-linejoin="round"/>
<path d="M6.63837 33.8463C8.09551 33.8463 9.27675 32.6696 9.27675 31.218C9.27675 29.7664 8.09551 28.5897 6.63837 28.5897C5.18124 28.5897 4 29.7664 4 31.218C4 32.6696 5.18124 33.8463 6.63837 33.8463Z" stroke="#001F73" stroke-width="1.5" stroke-miterlimit="10" stroke-linecap="round" stroke-linejoin="round"/>
<path d="M6.63837 15.1377C8.09551 15.1377 9.27675 13.961 9.27675 12.5094C9.27675 11.0578 8.09551 9.8811 6.63837 9.8811C5.18124 9.8811 4 11.0578 4 12.5094C4 13.961 5.18124 15.1377 6.63837 15.1377Z" stroke="#001F73" stroke-width="1.5" stroke-miterlimit="10" stroke-linecap="round" stroke-linejoin="round"/>
<path d="M38.3615 15.1377C39.8187 15.1377 40.9999 13.961 40.9999 12.5094C40.9999 11.0578 39.8187 9.8811 38.3615 9.8811C36.9044 9.8811 35.7231 11.0578 35.7231 12.5094C35.7231 13.961 36.9044 15.1377 38.3615 15.1377Z" stroke="#001F73" stroke-width="1.5" stroke-miterlimit="10" stroke-linecap="round" stroke-linejoin="round"/>
<path d="M38.3615 33.8463C39.8187 33.8463 40.9999 32.6696 40.9999 31.218C40.9999 29.7664 39.8187 28.5897 38.3615 28.5897C36.9044 28.5897 35.7231 29.7664 35.7231 31.218C35.7231 32.6696 36.9044 33.8463 38.3615 33.8463Z" stroke="#001F73" stroke-width="1.5" stroke-miterlimit="10" stroke-linecap="round" stroke-linejoin="round"/>
</svg>
