<svg width="99" height="100" viewBox="0 0 99 100" fill="none" xmlns="http://www.w3.org/2000/svg">
<rect x="1" y="1" width="97" height="97" stroke="#E2E2E2" stroke-width="2"/>
<path d="M2.7124 97.644L96.2877 97.6441" stroke="#FF006E" stroke-width="3" stroke-linecap="square" stroke-linejoin="round"/>
<path d="M50.8562 15.5957L42.7192 23.7327M83.4042 47.4656L77.3014 53.5683" stroke="#001F73" stroke-width="1.5" stroke-linecap="round" stroke-linejoin="round"/>
<path d="M40.0067 17.6304L32.8868 24.7502L29.8354 27.8016M84.7601 55.603L75.267 65.0961" stroke="#FF006E" stroke-width="1.5" stroke-linecap="round" stroke-linejoin="round"/>
<path d="M44.8511 32.3252L31.9399 46.8021" stroke="#001F73" stroke-width="1.5" stroke-linecap="round" stroke-linejoin="round"/>
<path d="M66.746 54.2461L52.269 67.1316" stroke="#001F73" stroke-width="1.5" stroke-linecap="round" stroke-linejoin="round"/>
<path d="M34.7632 43.645L55.4519 64.308" stroke="#001F73" stroke-width="1.5" stroke-linecap="round" stroke-linejoin="round"/>
<path d="M36.3546 62.7422L29.7578 69.3389" stroke="#FF006E" stroke-width="1.5" stroke-linecap="round" stroke-linejoin="round"/>
<path d="M77.7319 15.1782L83.9437 21.3643" stroke="#FF006E" stroke-width="1.5" stroke-linecap="round" stroke-linejoin="round"/>
<path d="M84.1493 16.308C84.1236 15.5637 83.5332 14.9476 82.7632 14.922C69.544 14.7166 54.3997 21.5957 44.851 32.3251C35.7131 32.5048 26.8062 36.278 20.2608 42.8491C19.8758 43.2341 19.7474 43.7988 19.9014 44.2865C20.0554 44.7999 20.5175 45.1592 21.0308 45.2363L31.9399 46.802L30.6051 48.3165C30.1174 48.8812 30.1174 49.7282 30.6565 50.2672L48.8296 68.4404C49.112 68.7228 49.4713 68.8511 49.8307 68.8511C50.1644 68.8511 50.4981 68.7228 50.7804 68.4918L52.2949 67.157L53.8606 78.066C53.9376 78.6051 54.3483 78.9901 54.8617 79.1698C54.99 79.2211 55.1184 79.2211 55.2724 79.2211C55.6574 79.2211 56.0938 79.0414 56.3761 78.7591C62.8445 72.2907 66.6178 63.3838 66.7975 54.2458C77.5012 44.6459 84.4573 29.5272 84.1493 16.308ZM69.7493 39.3325C68.3632 40.7186 66.5665 41.386 64.744 41.386C62.9216 41.386 61.1248 40.693 59.7387 39.3325C56.9922 36.586 56.9922 32.0941 59.7387 29.3219C62.4852 26.5497 66.9771 26.5497 69.7493 29.3219C72.4958 32.0941 72.4958 36.586 69.7493 39.3325Z" stroke="#001F73" stroke-width="1.5" stroke-linecap="round" stroke-linejoin="round"/>
<path d="M69.7492 39.3325C68.3632 40.7186 66.5664 41.3859 64.7439 41.3859C62.9215 41.3859 61.1247 40.6929 59.7386 39.3325C56.9921 36.5859 56.9921 32.094 59.7386 29.3218C62.4851 26.5496 66.9771 26.5496 69.7492 29.3218C72.4958 32.094 72.4958 36.5859 69.7492 39.3325Z" stroke="#001F73" stroke-width="1.5" stroke-linecap="round" stroke-linejoin="round"/>
<path d="M36.3547 75.089C33.3258 78.1179 19.6446 82.2762 18.1045 82.7382C17.9762 82.7895 17.8222 82.8152 17.6938 82.8152C17.3088 82.8152 16.9751 82.6612 16.6927 82.4045C16.3334 82.0451 16.1794 81.5061 16.3334 80.9927C16.7954 79.4526 20.9537 65.7714 23.9826 62.7425C27.3964 59.3287 32.9408 59.3287 36.3547 62.7425C39.7686 66.1564 39.7686 71.7008 36.3547 75.089Z" stroke="#001F73" stroke-width="1.5" stroke-linecap="round" stroke-linejoin="round"/>
<path d="M66.7718 36.3805C66.2071 36.9452 65.4627 37.2275 64.744 37.2275C63.9996 37.2275 63.2809 36.9452 62.7162 36.3805C61.5868 35.2511 61.5868 33.4286 62.7162 32.2992C63.8456 31.1698 65.6681 31.1698 66.7975 32.2992C67.9012 33.4286 67.9012 35.2511 66.7718 36.3805Z" stroke="#FF006E" stroke-width="1.5" stroke-linecap="round" stroke-linejoin="round"/>
<path d="M55.0809 48.3253C54.5162 48.89 53.7718 49.1724 53.0531 49.1724C52.3087 49.1724 51.59 48.89 51.0253 48.3253C49.8959 47.1959 49.8959 45.3734 51.0253 44.244C52.1547 43.1146 53.9771 43.1146 55.1065 44.244C56.2103 45.3734 56.2103 47.1959 55.0809 48.3253Z" stroke="#001F73" stroke-width="1.5" stroke-linecap="round" stroke-linejoin="round"/>
</svg>
