<svg width="13" height="13" viewBox="0 0 13 13" fill="none" xmlns="http://www.w3.org/2000/svg">
<path d="M11.7699 6.20993C11.7699 3.62272 9.66387 1.51667 7.07666 1.51667C4.48929 1.51667 2.38339 3.62271 2.38339 6.20993C2.38339 8.79731 4.48928 10.9032 7.07666 10.9032C9.66388 10.9032 11.7699 8.7973 11.7699 6.20993Z" stroke="white" stroke-width="1.3"/>
<path d="M1.32617 12.5929C1.07233 12.8468 0.660774 12.8468 0.406934 12.5929C0.153093 12.3391 0.153093 11.9275 0.406934 11.6737L1.32617 12.5929ZM3.00693 9.07371L3.46655 8.61409L4.38579 9.53333L3.92617 9.99294L3.00693 9.07371ZM0.406934 11.6737L1.70693 10.3737L2.62617 11.2929L1.32617 12.5929L0.406934 11.6737ZM1.70693 10.3737L3.00693 9.07371L3.92617 9.99294L2.62617 11.2929L1.70693 10.3737Z" fill="white"/>
</svg>
