<svg width="49" height="49" viewBox="0 0 49 49" fill="none" xmlns="http://www.w3.org/2000/svg">
<path d="M10.9024 19.8266C9.63048 19.8266 8.20949 20.2859 7.20192 20.8372C4.4865 22.3235 3.32275 24.6388 3.32275 27.7319C3.32573 29.8288 4.16037 31.8388 5.64356 33.3211C7.12675 34.8033 9.13735 35.6366 11.2342 35.6383M36.9674 18.4433C36.6245 17.7979 36.2223 17.1859 35.7659 16.615L34.5266 15.2879C33.4392 14.2921 32.1732 13.5111 30.7954 12.986L29.5561 12.5909C28.1004 12.2168 26.5868 12.1233 25.0961 12.3153L23.8568 12.546C22.233 12.9371 20.7119 13.6716 19.3958 14.6999L18.1585 15.8127C16.7775 17.2464 15.7874 19.0105 15.2828 20.9362C14.9946 20.7636 14.6956 20.6099 14.3876 20.4758" stroke="#001F73" stroke-width="1.5" stroke-linecap="round" stroke-linejoin="round"/>
<path d="M37.6299 35.6383H39.6624C40.4457 35.6383 41.2213 35.484 41.945 35.1842C42.6686 34.8845 43.3262 34.4451 43.8801 33.8912C44.4339 33.3374 44.8733 32.6798 45.1731 31.9561C45.4728 31.2325 45.6271 30.4568 45.6271 29.6735C45.6271 28.8902 45.4728 28.1146 45.1731 27.3909C44.8733 26.6673 44.4339 26.0097 43.8801 25.4558C43.3262 24.902 42.6686 24.4626 41.945 24.1628C41.2213 23.8631 40.4457 23.7088 39.6624 23.7088V23.7088C39.2158 23.7088 38.7707 23.7588 38.3353 23.8578C38.3304 22.9971 38.2308 22.1396 38.0382 21.3007" stroke="#001F73" stroke-width="1.5" stroke-linecap="round" stroke-linejoin="round"/>
<path d="M19.1772 41.6694V35.6383H21.7742" stroke="#001F73" stroke-width="1.5" stroke-linecap="round" stroke-linejoin="round"/>
<path d="M16.3516 35.6383H19.3957" stroke="#001F73" stroke-width="1.5" stroke-linecap="round" stroke-linejoin="round"/>
<path d="M13.7669 32.8708V41.3438L9.66113 45.2781" stroke="#001F73" stroke-width="1.5" stroke-linecap="round" stroke-linejoin="round"/>
<path d="M13.767 32.8514C14.8162 32.8514 15.6667 32.0009 15.6667 30.9517C15.6667 29.9024 14.8162 29.0519 13.767 29.0519C12.7177 29.0519 11.8672 29.9024 11.8672 30.9517C11.8672 32.0009 12.7177 32.8514 13.767 32.8514Z" stroke="#001F73" stroke-width="1.5" stroke-linecap="round" stroke-linejoin="round"/>
<path d="M19.1776 45.422C20.2268 45.422 21.0774 44.5714 21.0774 43.5222C21.0774 42.473 20.2268 41.6224 19.1776 41.6224C18.1284 41.6224 17.2778 42.473 17.2778 43.5222C17.2778 44.5714 18.1284 45.422 19.1776 45.422Z" stroke="#001F73" stroke-width="1.5" stroke-linecap="round" stroke-linejoin="round"/>
<path d="M29.9102 41.6112V35.5812H32.5072" stroke="#001F73" stroke-width="1.5" stroke-linecap="round" stroke-linejoin="round"/>
<path d="M27.0796 35.5812H30.1258" stroke="#001F73" stroke-width="1.5" stroke-linecap="round" stroke-linejoin="round"/>
<path d="M29.9051 45.3648C30.9544 45.3648 31.8049 44.5143 31.8049 43.4651C31.8049 42.4159 30.9544 41.5653 29.9051 41.5653C28.8559 41.5653 28.0054 42.4159 28.0054 43.4651C28.0054 44.5143 28.8559 45.3648 29.9051 45.3648Z" stroke="#001F73" stroke-width="1.5" stroke-linecap="round" stroke-linejoin="round"/>
<path d="M35.2075 32.734V41.2069L39.3133 45.1463" stroke="#001F73" stroke-width="1.5" stroke-linecap="round" stroke-linejoin="round"/>
<path d="M35.2074 32.7167C36.2566 32.7167 37.1072 31.8661 37.1072 30.8169C37.1072 29.7677 36.2566 28.9171 35.2074 28.9171C34.1582 28.9171 33.3076 29.7677 33.3076 30.8169C33.3076 31.8661 34.1582 32.7167 35.2074 32.7167Z" stroke="#001F73" stroke-width="1.5" stroke-linecap="round" stroke-linejoin="round"/>
<path d="M24.4574 32.7167C25.5066 32.7167 26.3572 31.8661 26.3572 30.8169C26.3572 29.7677 25.5066 28.9171 24.4574 28.9171C23.4082 28.9171 22.5576 29.7677 22.5576 30.8169C22.5576 31.8661 23.4082 32.7167 24.4574 32.7167Z" stroke="#001F73" stroke-width="1.5" stroke-linecap="round" stroke-linejoin="round"/>
<path d="M24.457 45.0494V32.6984" stroke="#001F73" stroke-width="1.5" stroke-linecap="round" stroke-linejoin="round"/>
<path d="M13.7669 20.1758V11.1761L9.66113 7.23669" stroke="#001F73" stroke-width="1.5" stroke-linecap="round" stroke-linejoin="round"/>
<path d="M8.38024 7.80736C9.42946 7.80736 10.28 6.9568 10.28 5.90758C10.28 4.85837 9.42946 4.00781 8.38024 4.00781C7.33103 4.00781 6.48047 4.85837 6.48047 5.90758C6.48047 6.9568 7.33103 7.80736 8.38024 7.80736Z" stroke="#001F73" stroke-width="1.5" stroke-linecap="round" stroke-linejoin="round"/>
<path d="M35.2075 16.0179V11.2097L39.3133 7.27136" stroke="#001F73" stroke-width="1.5" stroke-linecap="round" stroke-linejoin="round"/>
<path d="M40.5946 7.84202C41.6438 7.84202 42.4944 6.99147 42.4944 5.94225C42.4944 4.89304 41.6438 4.04248 40.5946 4.04248C39.5454 4.04248 38.6948 4.89304 38.6948 5.94225C38.6948 6.99147 39.5454 7.84202 40.5946 7.84202Z" stroke="#001F73" stroke-width="1.5" stroke-linecap="round" stroke-linejoin="round"/>
<path d="M24.4574 7.87156C25.5066 7.87156 26.3572 7.02101 26.3572 5.97179C26.3572 4.92258 25.5066 4.07202 24.4574 4.07202C23.4082 4.07202 22.5576 4.92258 22.5576 5.97179C22.5576 7.02101 23.4082 7.87156 24.4574 7.87156Z" stroke="#001F73" stroke-width="1.5" stroke-linecap="round" stroke-linejoin="round"/>
<path d="M24.457 12.3174V7.85229" stroke="#001F73" stroke-width="1.5" stroke-linecap="round" stroke-linejoin="round"/>
<path d="M17.5083 8.63928V16.5497" stroke="#001F73" stroke-width="1.5" stroke-linecap="round" stroke-linejoin="round"/>
<path d="M17.5082 8.68528C18.5574 8.68528 19.4079 7.83473 19.4079 6.78551C19.4079 5.7363 18.5574 4.88574 17.5082 4.88574C16.459 4.88574 15.6084 5.7363 15.6084 6.78551C15.6084 7.83473 16.459 8.68528 17.5082 8.68528Z" stroke="#001F73" stroke-width="1.5" stroke-linecap="round" stroke-linejoin="round"/>
<path d="M31.2969 8.0564V13.1932" stroke="#001F73" stroke-width="1.5" stroke-linecap="round" stroke-linejoin="round"/>
<path d="M31.2967 8.10338C32.346 8.10338 33.1965 7.25282 33.1965 6.20361C33.1965 5.15439 32.346 4.30383 31.2967 4.30383C30.2475 4.30383 29.397 5.15439 29.397 6.20361C29.397 7.25282 30.2475 8.10338 31.2967 8.10338Z" stroke="#001F73" stroke-width="1.5" stroke-linecap="round" stroke-linejoin="round"/>
</svg>
