<svg width="51" height="55" viewBox="0 0 51 55" fill="none" xmlns="http://www.w3.org/2000/svg">
<path d="M49.2504 30.6053C49.2483 28.9303 48.6874 27.3142 47.6736 26.0625C46.6597 24.8107 45.2632 24.01 43.7481 23.8116C43.568 22.3781 42.9218 21.0644 41.9286 20.1128C40.9354 19.1611 39.6623 18.6358 38.344 18.6336C38.2312 18.6336 38.1206 18.6336 38.0099 18.6439C37.3485 15.7979 35.8675 13.2624 33.7874 11.4148C31.7074 9.56723 29.1394 8.50627 26.4657 8.38985C26.0617 8.37152 25.6786 8.37152 25.2663 8.38985C22.5961 8.5137 20.0333 9.57885 17.958 11.4273C15.8827 13.2758 14.4054 15.8092 13.7451 18.6519C12.4408 18.7603 11.2003 19.3147 10.198 20.2371C9.19568 21.1596 8.48197 22.4036 8.15723 23.7944" stroke="#001F73" stroke-width="1.5" stroke-linecap="round" stroke-linejoin="round"/>
<path d="M43.7974 46.8531C44.7083 46.8513 45.5898 46.4991 46.2887 45.8578C46.9875 45.2165 47.4596 44.3266 47.6228 43.3429C47.7859 42.3592 47.6299 41.3439 47.1818 40.4733C46.7337 39.6028 46.0219 38.9321 45.1701 38.5779C45.0418 38.0945 44.8475 37.6351 44.5938 37.2155C44.8801 37.1361 45.1611 37.0358 45.4352 36.9153C45.6074 36.8369 45.7757 36.7485 45.9394 36.6506L46.0312 36.5979L46.1294 36.5372C46.2066 36.4879 46.2849 36.4398 46.3778 36.3779C47.2346 35.7709 47.9433 34.9433 48.4425 33.9673C48.9417 32.9912 49.2162 31.8961 49.2422 30.7771C49.2486 30.7201 49.2514 30.6627 49.2506 30.6052" stroke="#001F73" stroke-width="1.5" stroke-linecap="round" stroke-linejoin="round"/>
<path d="M27.3721 46.8531H43.7974" stroke="#001F73" stroke-width="1.5" stroke-linecap="round" stroke-linejoin="round"/>
<path d="M8.15728 23.7943C6.61289 23.9558 5.17864 24.7429 4.13419 26.002C3.08973 27.2612 2.50993 28.9022 2.50784 30.6051C2.5075 30.6626 2.51029 30.72 2.51619 30.777C2.54586 32.1189 2.93423 33.4216 3.633 34.5231C4.33177 35.6247 5.31011 36.4765 6.44637 36.9725" stroke="#001F73" stroke-width="1.5" stroke-linecap="round" stroke-linejoin="round"/>
<path d="M21.2101 22.9453C20.1835 23.0576 19.1874 23.3927 18.2798 23.9311C17.3721 24.4694 16.571 25.2004 15.9229 26.0815" stroke="#001F73" stroke-width="1.5" stroke-linecap="round" stroke-linejoin="round"/>
<path d="M43.2274 35.7237C42.2431 35.0116 41.0492 34.7364 39.887 34.9537C39.0755 34.0457 38.0204 33.4466 36.8764 33.2442C35.7323 33.0417 34.5592 33.2465 33.5288 33.8285" stroke="#001F73" stroke-width="1.5" stroke-linecap="round" stroke-linejoin="round"/>
<path d="M33.5329 33.8285C33.3207 32.9099 32.8363 32.0949 32.1561 31.5114C31.4758 30.928 30.6382 30.6092 29.7749 30.6052H29.7353C29.5301 28.3485 28.5166 26.2737 26.9178 24.8372C25.319 23.4007 23.2659 22.7202 21.21 22.9453" stroke="#001F73" stroke-width="1.5" stroke-linecap="round" stroke-linejoin="round"/>
<path d="M23.5431 46.8531L9.84223 46.8302L8.71903 45.5972L9.75246 43.6115C9.67313 43.4224 9.59901 43.2299 9.53325 43.0386L7.52588 42.4359V37.7953L9.53325 37.1926C9.59901 37.0001 9.67313 36.8076 9.75246 36.6196L8.71903 34.6339L11.7066 31.3534L13.5167 32.4866C13.691 32.3995 13.8643 32.3193 14.0386 32.2471L14.5877 30.0437" stroke="#001F73" stroke-width="1.5" stroke-linecap="round" stroke-linejoin="round"/>
<path d="M14.5845 30.0426H18.8163L19.3654 32.246C19.5408 32.3182 19.7151 32.3973 19.8874 32.4855L21.7037 31.3523L24.6913 34.6328L23.6589 36.6185C23.7382 36.8076 23.8113 37.0001 23.877 37.1915L25.8792 37.7953V40.1156" stroke="#001F73" stroke-width="1.5" stroke-linecap="round" stroke-linejoin="round"/>
<path d="M16.7055 43.7914C18.9424 43.7914 20.7557 41.801 20.7557 39.3456C20.7557 36.8902 18.9424 34.8998 16.7055 34.8998C14.4686 34.8998 12.6553 36.8902 12.6553 39.3456C12.6553 41.801 14.4686 43.7914 16.7055 43.7914Z" stroke="#001F73" stroke-width="1.5" stroke-linecap="round" stroke-linejoin="round"/>
<path d="M23.543 46.8531L24.686 45.5927L23.6536 43.607C23.733 43.4179 23.806 43.2254 23.8718 43.034L25.8792 42.4348V40.1156" stroke="#001F73" stroke-width="1.5" stroke-linecap="round" stroke-linejoin="round"/>
</svg>
