<svg width="41" height="40" viewBox="0 0 41 40" fill="none" xmlns="http://www.w3.org/2000/svg">
<path d="M40.0084 22.8862V14.3961H38.3031V6.7686H36.7559V1H9.3107V3.88524H7.15357V9.45911H5.44918V19.1967C4.76466 19.7564 4.2104 20.475 3.82905 21.2973C3.4477 22.1196 3.24941 23.0236 3.24944 23.9399V25.7875H1V38.6342H15.4936C15.8181 38.6343 16.1315 38.5089 16.3749 38.2815C16.6183 38.054 16.7749 37.7402 16.8154 37.399" stroke="#001F73" stroke-width="1.5" stroke-linecap="round" stroke-linejoin="round"/>
<path d="M5.24023 25.5059V24.0776C5.24023 23.0637 5.64228 22.0913 6.35793 21.3744C7.07357 20.6574 8.0442 20.2546 9.05627 20.2546C10.0684 20.2546 11.039 20.6574 11.7546 21.3744C12.4703 22.0913 12.8723 23.0637 12.8723 24.0776V25.5059H5.24023Z" stroke="#001F73" stroke-width="1.5" stroke-linecap="round" stroke-linejoin="round"/>
<path d="M31.5284 7.12646H11.1763V9.75214" stroke="#001F73" stroke-width="1.5" stroke-linecap="round" stroke-linejoin="round"/>
<path d="M37.4643 7.12646H34.0723" stroke="#001F73" stroke-width="1.5" stroke-linecap="round" stroke-linejoin="round"/>
<path d="M11.1763 4.50073H31.5285" stroke="#001F73" stroke-width="1.5" stroke-linecap="round" stroke-linejoin="round"/>
<path d="M35.7684 14.1281H22.1508L20.1673 10.4358C20.0569 10.23 19.8885 10.0571 19.6807 9.93642C19.473 9.81573 19.2341 9.75192 18.9905 9.75208H11.1763" stroke="#001F73" stroke-width="1.5" stroke-linecap="round" stroke-linejoin="round"/>
<path d="M34.0725 10.6273H23.0483" stroke="#001F73" stroke-width="1.5" stroke-linecap="round" stroke-linejoin="round"/>
<path d="M35.7682 29.0068H24.7441V33.3829H35.7682V29.0068Z" stroke="#001F73" stroke-width="1.5" stroke-linecap="round" stroke-linejoin="round"/>
<path d="M24.7441 26.3811H35.7683" stroke="#001F73" stroke-width="1.5" stroke-linecap="round" stroke-linejoin="round"/>
<path d="M17.1844 36.963V25.4758H14.9483V23.7288C14.9483 20.5 12.5347 17.8 9.47487 17.7106C8.62586 17.6853 7.78249 17.8635 7.0083 18.2318" stroke="#001F73" stroke-width="1.5" stroke-linecap="round" stroke-linejoin="round"/>
<path d="M17.0083 36.5052H40.0083V25.0182" stroke="#001F73" stroke-width="1.5" stroke-linecap="round" stroke-linejoin="round"/>
</svg>
