<svg width="50" height="50" viewBox="0 0 50 50" fill="none" xmlns="http://www.w3.org/2000/svg">
<path d="M48.5927 21.2261L46.2813 21.2053L47.4032 20.0844L46.3719 18.2792C46.4511 18.1073 46.524 17.9323 46.5896 17.7584L48.5927 17.2105V12.9917L46.5896 12.4438C46.524 12.2688 46.4511 12.0938 46.3719 11.923L47.4032 10.1188L44.4209 7.13442L42.6146 8.16462C42.4417 8.08546 42.2677 8.0115 42.0938 7.94587L41.5459 5.94275H38.4448" stroke="#fff" stroke-width="1.5" stroke-linecap="round" stroke-linejoin="round"/>
<path d="M1.28125 44.0979H48.5927V21.2261" stroke="#fff" stroke-width="1.5" stroke-linecap="round" stroke-linejoin="round"/>
<path d="M1.28125 12.051V44.0979" stroke="#fff" stroke-width="1.5" stroke-linecap="round" stroke-linejoin="round"/>
<path d="M38.4448 5.94275H37.3271L36.7792 7.94587C36.6042 8.01115 36.4306 8.08407 36.2583 8.16462L34.4521 7.13442L31.4688 10.1167L32.5 11.9209C32.4208 12.0938 32.3479 12.2688 32.2823 12.4417L30.2792 12.9896V15.1042H22.6479V12.0511H1.28125" stroke="#fff" stroke-width="1.5" stroke-linecap="round" stroke-linejoin="round"/>
<path d="M22.7144 27.5583H34.6019" stroke="#fff" stroke-width="1.5" stroke-linecap="round" stroke-linejoin="round"/>
<path d="M37.9094 17.7355V15.2574L36.3979 15.2449" stroke="#fff" stroke-width="1.5" stroke-linecap="round" stroke-linejoin="round"/>
<path d="M45.5291 27.5583H38.0947" stroke="#fff" stroke-width="1.5" stroke-linecap="round" stroke-linejoin="round"/>
<path d="M37.9095 19.4125C38.8257 19.7363 39.8211 19.7601 40.7517 19.4804C41.6823 19.2008 42.4998 18.6322 43.0857 17.8571C43.6717 17.0819 43.9958 16.1404 44.011 15.1688C44.0263 14.1972 43.7319 13.246 43.1706 12.4529C42.6092 11.6597 41.81 11.0658 40.8887 10.757C39.9673 10.4483 38.9716 10.4408 38.0457 10.7357C37.1198 11.0305 36.3118 11.6124 35.7386 12.397C35.1654 13.1816 34.8568 14.1283 34.8574 15.1H30.2793" stroke="#fff" stroke-width="1.5" stroke-linecap="round" stroke-linejoin="round"/>
<path d="M22.6479 15.1V44.0979" stroke="#fff" stroke-width="1.5" stroke-linecap="round" stroke-linejoin="round"/>
<path d="M37.9092 17.7355V44.098" stroke="#fff" stroke-width="1.5" stroke-linecap="round" stroke-linejoin="round"/>
<path d="M23.1157 22.7302H35.0032" stroke="#fff" stroke-width="1.5" stroke-linecap="round" stroke-linejoin="round"/>
<path d="M11.6665 18.5135H19.4259" stroke="#fff" stroke-width="1.5" stroke-linecap="round" stroke-linejoin="round"/>
<path d="M4.5752 27.5583H19.8367" stroke="#fff" stroke-width="1.5" stroke-linecap="round" stroke-linejoin="round"/>
<path d="M4.40186 18.5135H8.79457" stroke="#fff" stroke-width="1.5" stroke-linecap="round" stroke-linejoin="round"/>
<path d="M11.729 23.0364H19.4884" stroke="#fff" stroke-width="1.5" stroke-linecap="round" stroke-linejoin="round"/>
<path d="M4.46436 23.0364H8.85394" stroke="#fff" stroke-width="1.5" stroke-linecap="round" stroke-linejoin="round"/>
<path d="M11.9644 39.499C13.6391 39.499 14.9967 38.1414 14.9967 36.4667C14.9967 34.792 13.6391 33.4344 11.9644 33.4344C10.2897 33.4344 8.93213 34.792 8.93213 36.4667C8.93213 38.1414 10.2897 39.499 11.9644 39.499Z" stroke="#fff" stroke-width="1.5" stroke-linecap="round" stroke-linejoin="round"/>
<path d="M30.2791 40.0135C31.7012 40.0135 32.8541 38.8607 32.8541 37.4385C32.8541 36.0164 31.7012 34.8635 30.2791 34.8635C28.857 34.8635 27.7041 36.0164 27.7041 37.4385C27.7041 38.8607 28.857 40.0135 30.2791 40.0135Z" stroke="#fff" stroke-width="1.5" stroke-linecap="round" stroke-linejoin="round"/>
<path d="M40.6263 40.0135C42.0484 40.0135 43.2013 38.8607 43.2013 37.4385C43.2013 36.0164 42.0484 34.8635 40.6263 34.8635C39.2041 34.8635 38.0513 36.0164 38.0513 37.4385C38.0513 38.8607 39.2041 40.0135 40.6263 40.0135Z" stroke="#fff" stroke-width="1.5" stroke-linecap="round" stroke-linejoin="round"/>
</svg>
