<svg width="99" height="100" viewBox="0 0 99 100" fill="none" xmlns="http://www.w3.org/2000/svg">
<rect x="1" y="1" width="97" height="97" stroke="#E2E2E2" stroke-width="2"/>
<path d="M2.7124 97.644L96.2877 97.6441" stroke="#FF006E" stroke-width="3" stroke-linecap="square" stroke-linejoin="round"/>
<path d="M26.2373 51.5465C26.1916 47.348 26.2145 43.1723 26.2601 38.9738C26.2601 38.4261 26.2601 29.7324 26.3514 29.7324" stroke="#FF006E" stroke-width="1.5" stroke-linecap="round" stroke-linejoin="round"/>
<path d="M26.3284 29.732C28.2908 29.6407 30.2303 29.4125 32.1699 29.0703C35.4785 28.4998 39.2891 27.3817 42.1414 25.6019C43.5105 24.7348 44.8111 23.6396 45.9977 22.5443C46.454 22.1107 47.5493 21.3121 47.6862 20.6504C47.6177 21.0383 51.0176 23.7765 51.4055 24.0959C52.6377 25.0999 54.0068 26.1496 55.4443 26.8569C58.0912 28.1575 61.1261 28.7736 64.024 29.2072C64.3206 29.2528 69.4547 29.8004 69.4547 29.732C69.4547 32.8809 69.4547 36.0298 69.4547 39.1787C69.4547 41.7343 69.4547 44.2899 69.4547 46.8456C69.4547 52.8924 69.3178 58.6882 65.7125 63.8907C62.4267 68.6369 57.5892 72.1052 52.5236 74.7065C51.0176 75.4823 49.4432 76.1896 47.8687 76.8057C47.4124 76.9883 45.0849 75.5279 44.5601 75.2769C41.0233 73.5884 37.5778 71.5576 34.6114 69.0019C30.6411 65.5564 27.8573 61.1753 26.7164 56.0184C26.3969 54.5581 26.2372 53.0521 26.2144 51.5461" stroke="#001F73" stroke-width="1.5" stroke-linecap="round" stroke-linejoin="round"/>
<path d="M47.4658 21.0205V28.4794M47.4658 65.0959V76.6233" stroke="#001F73" stroke-width="1.5" stroke-linecap="round" stroke-linejoin="round"/>
<path d="M48.2112 34.9575L52.5467 43.7653L62.2672 45.1572L55.2392 52.0255L56.9049 61.6775L48.2112 57.1139L39.5175 61.6775L41.1832 52.0255L34.1553 45.1572L43.8758 43.7653L48.2112 34.9575Z" stroke="#001F73" stroke-width="1.5" stroke-linecap="round" stroke-linejoin="round"/>
<path d="M47.8232 83.5603C47.2528 83.7885 44.3777 81.9858 43.7388 81.6664C39.4033 79.5443 35.1135 77.0343 31.4626 73.8626C26.5339 69.5956 23.0884 64.1649 21.6737 57.7758C21.263 55.9504 21.0804 54.0793 21.0576 52.231C21.012 47.0285 21.0348 41.8488 21.0804 36.6463C21.0804 35.9617 21.0804 25.2144 21.1945 25.1916C23.6132 25.0775 26.0319 24.7808 28.4278 24.3701C32.5351 23.6628 37.2356 22.2937 40.7724 20.0803C42.461 19.0079 44.0811 17.6616 45.5414 16.2697C46.089 15.7449 47.4581 14.7409 47.6179 13.9194C47.5266 14.3986 51.7479 17.7985 52.2271 18.1864C53.7331 19.4414 55.4445 20.742 57.2243 21.6091C60.5101 23.2064 64.2751 23.9822 67.8575 24.5299C68.2454 24.5755 74.5889 25.26 74.5889 25.1916C74.5889 29.0935 74.5889 32.9954 74.5889 36.8973C74.5889 40.069 74.5889 43.2407 74.5889 46.4124" stroke="#001F73" stroke-width="1.5" stroke-linecap="round" stroke-linejoin="round"/>
<path d="M74.5889 46.4121C74.5889 53.9193 74.4063 61.107 69.9568 67.5417C65.8952 73.4059 59.894 77.7414 53.5962 80.9359C51.7251 81.8943 49.7856 82.7613 47.8232 83.5372" stroke="#FF006E" stroke-width="1.5" stroke-linecap="round" stroke-linejoin="round"/>
<path d="M48.1438 52.8902C50.0163 52.8902 51.5342 51.3723 51.5342 49.4998C51.5342 47.6273 50.0163 46.1094 48.1438 46.1094C46.2714 46.1094 44.7534 47.6273 44.7534 49.4998C44.7534 51.3723 46.2714 52.8902 48.1438 52.8902Z" stroke="#FF006E" stroke-width="1.5" stroke-linecap="round" stroke-linejoin="round"/>
</svg>
