<svg width="99" height="100" viewBox="0 0 99 100" fill="none" xmlns="http://www.w3.org/2000/svg">
<rect x="1" y="1" width="97" height="97" stroke="#E2E2E2" stroke-width="2"/>
<path d="M2.7124 97.644L96.2877 97.6441" stroke="#FF006E" stroke-width="3" stroke-linecap="square" stroke-linejoin="round"/>
<path d="M56.2808 65.0957L51.8593 71.9841C51.4597 72.4492 51.4216 73.2662 51.7832 73.7941C51.8974 73.9701 52.0496 74.0958 52.2114 74.1587L59.6712 77.3012" stroke="#FF006E" stroke-width="1.5" stroke-linecap="round" stroke-linejoin="round"/>
<path d="M44.7912 46.1096L38.4077 39.7261" stroke="#FF006E" stroke-width="1.5" stroke-linecap="round" stroke-linejoin="round"/>
<path d="M57.6273 71.0666C65.902 67.5687 71.7037 59.3786 71.7037 49.8345C71.7037 37.1028 61.3885 26.7876 48.6568 26.7876C35.925 26.7876 25.6099 37.1028 25.6099 49.8345C25.6099 59.9522 32.3048 68.8757 41.9524 71.9693L47.5787 55.0942" stroke="#001F73" stroke-width="1.5" stroke-linecap="round" stroke-linejoin="round"/>
<path d="M67.867 49.9756H61.5669" stroke="#FF006E" stroke-width="1.5" stroke-linecap="round" stroke-linejoin="round"/>
<path d="M48.6758 30.793V36.8862" stroke="#001F73" stroke-width="1.5" stroke-linecap="round" stroke-linejoin="round"/>
<path d="M29.4839 49.9756H35.6429" stroke="#001F73" stroke-width="1.5" stroke-linecap="round" stroke-linejoin="round"/>
<path d="M75.4826 63.4852C77.5162 59.4628 78.6576 54.9117 78.6576 50.0911C78.6576 33.6284 65.2935 20.2861 48.8168 20.2861C32.34 20.2861 18.9863 33.6284 18.9863 50.0911C18.9863 63.1742 27.6501 74.7126 40.1426 78.7142" stroke="#001F73" stroke-width="1.5" stroke-linecap="round" stroke-linejoin="round"/>
<path d="M48.8217 55.0946C51.568 55.0946 53.7943 52.8683 53.7943 50.122C53.7943 47.3757 51.568 45.1494 48.8217 45.1494C46.0754 45.1494 43.8491 47.3757 43.8491 50.122C43.8491 52.8683 46.0754 55.0946 48.8217 55.0946Z" stroke="#001F73" stroke-width="1.5" stroke-linecap="round" stroke-linejoin="round"/>
<path d="M40.6372 41.9824L36.6162 37.9727" stroke="#FF006E" stroke-width="1.5" stroke-linecap="round" stroke-linejoin="round"/>
<path d="M57.5454 42.0024L61.5865 37.9727" stroke="#FF006E" stroke-width="1.5" stroke-linecap="round" stroke-linejoin="round"/>
<path d="M36.6162 62.8729L40.9186 58.5825" stroke="#FF006E" stroke-width="1.5" stroke-linecap="round" stroke-linejoin="round"/>
</svg>
