<svg width="69" height="75" viewBox="0 0 69 75" fill="none" xmlns="http://www.w3.org/2000/svg">
<path d="M57.8563 49.083V65.3807" stroke="#FF006E" stroke-width="2" stroke-linecap="round" stroke-linejoin="round"/>
<path d="M57.8563 6.87158V43.2455" stroke="#001F73" stroke-width="2" stroke-linecap="round" stroke-linejoin="round"/>
<path d="M52.1474 6.87158V65.3806" stroke="#001F73" stroke-width="2" stroke-linecap="round" stroke-linejoin="round"/>
<path d="M46.2628 14.4901V24.2247" stroke="#001F73" stroke-width="2" stroke-linecap="round" stroke-linejoin="round"/>
<path d="M46.0817 24.2246H26.1085" stroke="#001F73" stroke-width="2" stroke-linecap="round" stroke-linejoin="round"/>
<path d="M46.1893 31.0499H22.9968" stroke="#FF006E" stroke-width="2" stroke-linecap="round" stroke-linejoin="round"/>
<path d="M46.1893 44.9474H23.1492" stroke="#001F73" stroke-width="2" stroke-linecap="round" stroke-linejoin="round"/>
<path d="M46.1894 37.875H23.2935" stroke="#001F73" stroke-width="2" stroke-linecap="round" stroke-linejoin="round"/>
<path d="M46.2628 52.0117H22.9968" stroke="#FF006E" stroke-width="2" stroke-linecap="round" stroke-linejoin="round"/>
<path d="M45.894 58.7737H22.5573" stroke="#001F73" stroke-width="2" stroke-linecap="round" stroke-linejoin="round"/>
<path d="M17.4131 41.3798H12.3524" stroke="#FF006E" stroke-width="2" stroke-linecap="round" stroke-linejoin="round"/>
<path d="M11.2479 46.9309H18.7343" stroke="#001F73" stroke-width="2" stroke-linecap="round" stroke-linejoin="round"/>
<path d="M9.48499 53.0417H20.5165" stroke="#FF006E" stroke-width="2" stroke-linecap="round" stroke-linejoin="round"/>
<path d="M46.2628 24.2247V65.3807" stroke="#001F73" stroke-width="2" stroke-linecap="round" stroke-linejoin="round"/>
<path d="M35.3358 8.7002V19.742" stroke="#FF006E" stroke-width="2" stroke-linecap="round" stroke-linejoin="round"/>
<path d="M13.598 61.8357C12.7411 61.3152 11.718 61.1434 10.7388 61.3558C9.75953 61.5681 8.89846 62.1484 8.33226 62.9776C7.68216 63.0478 7.06951 63.3176 6.57789 63.75C6.08628 64.1825 5.73965 64.7567 5.58533 65.3941" stroke="#FF006E" stroke-width="2" stroke-linecap="round" stroke-linejoin="round"/>
<path d="M46.1893 19.7421H26.856C26.7578 19.7421 26.6606 19.7615 26.5699 19.7992C26.4792 19.8369 26.3968 19.8921 26.3274 19.9618C26.2579 20.0314 26.2029 20.1141 26.1653 20.2051C26.1277 20.2962 26.1084 20.3937 26.1084 20.4922V20.4922V24.2246H23.7444C23.5461 24.2247 23.356 24.3037 23.2158 24.4444C23.0756 24.5851 22.9968 24.7759 22.9968 24.9748V65.3807H16.167V57.6473H20.7956C20.9049 57.6473 21.0129 57.6233 21.112 57.5768C21.2111 57.5304 21.2988 57.4627 21.3689 57.3786C21.4391 57.2945 21.49 57.1959 21.5181 57.0899C21.5462 56.9839 21.5507 56.873 21.5314 56.765L20.7464 53.4584C20.7173 53.2981 20.6367 53.1517 20.5169 53.0418L19.9224 49.6253C19.9018 49.5089 19.854 49.3991 19.7829 49.3048C19.7117 49.2106 19.6194 49.1345 19.5133 49.083L18.9363 45.7885C18.9153 45.6704 18.8664 45.5591 18.7935 45.4641C18.7207 45.369 18.6261 45.2929 18.5178 45.2422L17.8857 41.9405C17.8615 41.8142 17.8054 41.6963 17.7226 41.5981C17.6399 41.4999 17.5334 41.4247 17.4134 41.3797L14.9504 34.0527C14.8185 33.6601 14.8904 33.8307 14.8163 34.0527L12.3526 41.3798C12.2326 41.4248 12.1261 41.5001 12.0434 41.5983C11.9607 41.6965 11.9045 41.8144 11.8803 41.9406L11.2482 45.2423C11.1398 45.293 11.0453 45.3691 10.9724 45.4642C10.8996 45.5593 10.8506 45.6705 10.8296 45.7886L10.2527 49.083C10.1466 49.1345 10.0543 49.2106 9.98314 49.3049C9.91203 49.3991 9.86422 49.509 9.84363 49.6254L9.24907 53.0419C9.12933 53.1519 9.04873 53.2982 9.01955 53.4585L8.23449 56.7651C8.21527 56.8731 8.21988 56.984 8.24799 57.09C8.2761 57.196 8.32704 57.2945 8.3972 57.3786C8.46737 57.4627 8.55506 57.5304 8.65411 57.5768C8.75315 57.6233 8.86114 57.6474 8.97047 57.6474H13.5983V61.8359" stroke="#001F73" stroke-width="2" stroke-linecap="round" stroke-linejoin="round"/>
<path d="M64.4317 6.87161C64.4317 6.77311 64.4123 6.67557 64.3747 6.58456C64.3372 6.49356 64.2821 6.41087 64.2127 6.34122C64.1432 6.27157 64.0608 6.21633 63.9701 6.17864C63.8794 6.14096 63.7821 6.12157 63.6839 6.12158H47.0608C46.8625 6.12158 46.6724 6.2006 46.5321 6.34125C46.3919 6.48191 46.3131 6.67268 46.3131 6.87161V10.0963" stroke="#001F73" stroke-width="2" stroke-linecap="round" stroke-linejoin="round"/>
<path d="M5.58508 65.3941C4.9094 65.4625 4.28305 65.78 3.82729 66.2851C3.37153 66.7902 3.11878 67.447 3.11798 68.1283C3.11798 68.3272 3.19675 68.518 3.33695 68.6586C3.47715 68.7993 3.66731 68.8783 3.86559 68.8783H66.1343C66.2324 68.8783 66.3297 68.8589 66.4204 68.8212C66.5111 68.7836 66.5935 68.7283 66.663 68.6587C66.7324 68.589 66.7875 68.5063 66.8251 68.4153C66.8626 68.3243 66.882 68.2268 66.882 68.1283V68.1283C66.8811 67.4499 66.6305 66.7957 66.1783 66.2914C65.726 65.7871 65.104 65.4682 64.4317 65.3959V6.87158" stroke="#001F73" stroke-width="2" stroke-linecap="round" stroke-linejoin="round"/>
<path d="M64.4317 65.3806H5.58508" stroke="#001F73" stroke-width="2" stroke-linecap="round" stroke-linejoin="round"/>
</svg>
