<svg width="45" height="45" viewBox="0 0 45 45" fill="none" xmlns="http://www.w3.org/2000/svg">
<path d="M22.0558 0.99994C17.0275 0.999939 12.9584 5.04888 12.9584 10.0522C12.9584 15.0555 17.0275 19.1045 22.0558 19.1045C27.0842 19.1045 31.1533 15.0556 31.1533 10.0522C31.1533 5.04888 27.0842 0.999941 22.0558 0.99994Z" stroke="#001F73" stroke-width="1.5" stroke-linecap="round" stroke-linejoin="round"/>
<path d="M20.3492 12.2465C20.8898 13.4489 23.0311 13.2696 23.5187 12.1199C23.7413 11.5925 23.5823 11.0335 23.2007 10.6222C22.7025 10.0737 21.8968 10.0631 21.2714 9.69396C20.8686 9.46191 20.5294 9.09274 20.4234 8.63919C20.2114 7.73209 20.8474 6.91993 21.8332 6.8039C22.6283 6.70897 23.3703 6.86719 23.8579 7.55279" stroke="#001F73" stroke-width="1.5" stroke-linecap="round" stroke-linejoin="round"/>
<path d="M22.0562 14.3877L22.0562 13.0587" stroke="#001F73" stroke-width="1.5" stroke-linecap="round" stroke-linejoin="round"/>
<path d="M22.1089 6.78256L22.1089 5.51685" stroke="#001F73" stroke-width="1.5" stroke-linecap="round" stroke-linejoin="round"/>
<path d="M28.6917 16.5L28.6917 29.3019L36.0483 29.3019L21.9393 42.708L7.99983 29.323L15.4201 29.3019L15.4201 16.5" stroke="#001F73" stroke-width="1.5" stroke-linecap="round" stroke-linejoin="round"/>
<path d="M21.9922 32.8142L21.9922 19.4187" stroke="#001F73" stroke-width="1.5" stroke-linecap="round" stroke-linejoin="round"/>
</svg>
