<svg width="69" height="75" viewBox="0 0 69 75" fill="none" xmlns="http://www.w3.org/2000/svg">
<path d="M49.7437 13.0087C49.7867 13.6653 49.7449 18.7432 49.7554 19.3999C50.2883 19.52 50.7878 19.7551 51.2182 20.0884C51.6487 20.4218 51.9994 20.8451 52.2453 21.3283C52.6044 22.309 52.7299 23.3586 52.6122 24.3953C52.5953 25.3401 52.6514 26.2888 52.5809 27.2323C52.5103 27.8216 52.2917 28.384 51.9449 28.8681C51.5982 29.3522 51.1345 29.7426 50.596 30.0035C49.6732 30.3261 48.6896 30.4423 47.7159 30.3439" stroke="#001F73" stroke-width="2" stroke-linecap="round" stroke-linejoin="round"/>
<path d="M23.6633 21.7609C23.6604 20.2778 23.6666 17.6067 23.6613 16.1235C23.6256 15.4859 23.6976 14.8469 23.8741 14.2327C24.0983 13.5635 24.5013 12.9669 25.0403 12.5061C25.5794 12.0453 26.2344 11.7375 26.9359 11.6154C27.7206 11.5391 28.5096 11.5145 29.2977 11.5417C30.1762 11.4667 31.0607 11.5805 31.8907 11.8752C32.4281 12.144 32.9353 12.468 33.4041 12.8419C33.8359 13.1167 34.338 13.2636 34.8514 13.2652C35.3647 13.2668 35.8678 13.1231 36.3013 12.851C36.7723 12.4743 37.2816 12.1472 37.8212 11.8752C38.7762 11.5623 39.7864 11.4491 40.7879 11.5427C41.6864 11.4701 42.5907 11.5549 43.4594 11.7934C43.9995 11.9893 44.4897 12.3002 44.8951 12.7042C45.3005 13.1081 45.6113 13.5953 45.8056 14.1313C46.0042 14.7315 46.0884 15.3631 46.0537 15.9937C46.0473 17.8226 46.0576 19.6527 46.0473 21.4816" stroke="#001F73" stroke-width="2" stroke-linecap="round" stroke-linejoin="round"/>
<path d="M47.0905 32.5302C46.8514 33.273 46.5 33.9758 46.0485 34.6145C45.0269 36.1708 43.6776 37.4901 42.0929 38.482C42.0903 39.4304 42.0942 40.3781 42.0876 41.3267C42.0867 41.7405 42.1292 42.1533 42.2143 42.5584C46.4825 42.5572 50.7508 42.5568 55.0191 42.5572C55.7087 42.4963 56.4034 42.5831 57.056 42.8118C57.5821 43.037 58.0331 43.4051 58.3566 43.8735C58.6801 44.3419 58.863 44.8915 58.884 45.4585C58.8958 46.2663 58.7837 47.0686 58.7769 47.8767C59.8188 48.581 60.7068 49.4857 61.3881 50.5369C62.0693 51.588 62.5299 52.7642 62.7422 53.9953C63.463 58.1014 64.1616 63.8001 64.8771 67.9075C65.0257 68.53 65.0885 69.1696 65.0637 69.8087C65.0125 70.3083 64.8461 70.7897 64.5774 71.2156C64.3088 71.6416 63.9449 72.0009 63.5139 72.2658C63.1095 72.4932 62.6748 72.6633 62.2226 72.7711H7.61437C7.11001 72.6893 6.62581 72.5139 6.18725 72.2541C5.76113 71.9876 5.40152 71.629 5.13537 71.2053C4.86922 70.7816 4.70345 70.3037 4.65049 69.8075C4.62573 69.2238 4.68063 68.6395 4.8137 68.0704C5.53785 63.9087 6.24339 58.1545 6.97322 53.9927C7.1884 52.7615 7.65076 51.5854 8.33297 50.534C9.01518 49.4826 9.9034 48.5773 10.9451 47.8716C10.9348 47.0249 10.8054 46.1823 10.8433 45.3358C10.885 44.778 11.084 44.243 11.4178 43.7917C11.7516 43.3404 12.2067 42.9909 12.7313 42.7831C13.4446 42.5689 14.1928 42.4921 14.9353 42.557C19.1278 42.557 23.3209 42.5561 27.5143 42.5543C27.6423 41.2016 27.6803 39.842 27.6279 38.4843C26.7631 37.9281 25.96 37.283 25.232 36.5598C23.5584 34.8503 22.435 32.6875 22.0043 30.3455C21.1176 30.424 20.2238 30.3394 19.3682 30.096C18.7483 29.8554 18.2094 29.4467 17.8133 28.9168C17.4172 28.3869 17.18 27.7573 17.1289 27.1C17.0689 26.1566 17.1171 25.2105 17.1015 24.267C16.9917 23.2758 17.1173 22.2729 17.4684 21.3383C17.7127 20.8531 18.0628 20.4276 18.4934 20.0926C18.924 19.7575 19.4243 19.5213 19.9583 19.4009C19.9597 17.1933 19.9558 14.9858 19.9583 12.7769C19.9673 5.44187 28.7685 2.77443 34.7538 2.66084C40.7964 2.54615 50.131 5.58325 49.7436 13.0087" stroke="#001F73" stroke-width="2" stroke-linecap="round" stroke-linejoin="round"/>
<path d="M22.0043 30.3454C22.0056 28.5023 21.8881 24.7154 21.8868 22.8723" stroke="#001F73" stroke-width="2" stroke-linecap="round" stroke-linejoin="round"/>
<path d="M47.8386 22.8779C47.8295 24.7196 48.0134 30.1156 47.0905 32.5302" stroke="#001F73" stroke-width="2" stroke-linecap="round" stroke-linejoin="round"/>
<path d="M39.2157 39.8625C37.4919 40.6047 35.5892 40.842 33.7333 40.5463C32.6259 40.5345 31.5321 40.3033 30.5165 39.8662" stroke="#FF006E" stroke-width="2" stroke-linecap="round" stroke-linejoin="round"/>
<path d="M54.5556 64.6405C54.9521 58.3465 55.3409 53.128 55.7399 46.834C55.7781 46.6389 55.7697 46.4376 55.7154 46.2463C55.661 46.0549 55.5623 45.8788 55.427 45.732C55.0585 45.3658 54.4973 45.4373 54.0224 45.4285C40.7231 45.4347 28.246 45.4272 14.9467 45.4323C14.7847 45.422 14.6224 45.4444 14.4695 45.4983C14.3166 45.5522 14.1764 45.6364 14.0575 45.7457C13.9265 45.8987 13.832 46.0788 13.7808 46.2729C13.7296 46.4669 13.7232 46.6698 13.762 46.8666C14.1609 53.1493 14.5418 58.3491 14.9462 64.6327C15.7049 64.6415 53.7965 64.6177 54.5551 64.6403" stroke="#001F73" stroke-width="2" stroke-linecap="round" stroke-linejoin="round"/>
<path d="M12.0129 67.6438C11.693 62.5863 11.249 52.9305 10.9447 47.8717" stroke="#001F73" stroke-width="2" stroke-linecap="round" stroke-linejoin="round"/>
<path d="M58.7764 47.877C58.4682 52.9388 57.9733 62.8464 57.6692 67.9077" stroke="#001F73" stroke-width="2" stroke-linecap="round" stroke-linejoin="round"/>
<path d="M8.53687 67.9077H61.0267" stroke="#FF006E" stroke-width="2" stroke-linecap="round" stroke-linejoin="round"/>
<path d="M35.8784 61.6483C39.4637 61.6483 42.37 58.7713 42.37 55.2224C42.37 51.6735 39.4637 48.7965 35.8784 48.7965C32.2932 48.7965 29.3868 51.6735 29.3868 55.2224C29.3868 58.7713 32.2932 61.6483 35.8784 61.6483Z" stroke="#001F73" stroke-width="2" stroke-linecap="round" stroke-linejoin="round"/>
<path d="M37.4984 57.8637C37.0347 58.0517 36.5361 58.1404 36.0353 58.1241C35.6643 58.1464 35.2928 58.0894 34.946 57.957C34.5992 57.8245 34.2853 57.6197 34.0256 57.3565C33.7659 57.0932 33.5665 56.7777 33.441 56.4314C33.3155 56.0851 33.2667 55.7161 33.2981 55.3494C33.2762 54.9669 33.3359 54.584 33.4733 54.2258C33.6107 53.8676 33.8228 53.5421 34.0957 53.2704C34.3686 52.9987 34.6963 52.7869 35.0574 52.6488C35.4185 52.5108 35.8049 52.4496 36.1915 52.4691C36.6429 52.4504 37.0928 52.5339 37.5067 52.7133" stroke="#FF006E" stroke-width="2" stroke-linecap="round" stroke-linejoin="round"/>
<path d="M46.0479 21.4821C46.6092 21.2285 47.4038 19.1375 49.7559 19.3999" stroke="#FF006E" stroke-width="2" stroke-linecap="round" stroke-linejoin="round"/>
<path d="M19.9583 19.4013C22.8972 19.2035 23.6639 22.0653 23.6633 21.7613" stroke="#FF006E" stroke-width="2" stroke-linecap="round" stroke-linejoin="round"/>
</svg>
